<svg width="41" height="40" viewBox="0 0 41 40" fill="none" xmlns="http://www.w3.org/2000/svg">
<path fill-rule="evenodd" clip-rule="evenodd" d="M21.4141 0C31.6139 0.541516 39.7923 8.72099 40.3337 18.9221H34.9296C34.4036 11.7019 28.6333 5.92574 21.4141 5.39969V0Z" fill="#0E0E10"/>
<path fill-rule="evenodd" clip-rule="evenodd" d="M19.2527 40.0003C9.05287 39.4587 0.874454 31.2793 0.333008 21.0781H5.732C6.25798 28.3035 12.0282 34.0745 19.2475 34.6006V40.0003H19.2527Z" fill="#0E0E10"/>
<path fill-rule="evenodd" clip-rule="evenodd" d="M0.337891 18.9221C0.879337 8.72099 9.05776 0.541516 19.2576 0V5.40485C12.0331 5.9309 6.26802 11.7019 5.73689 18.9221H0.337891Z" fill="#0E0E10"/>
<path fill-rule="evenodd" clip-rule="evenodd" d="M40.3337 21.0781C39.7923 31.2793 31.6139 39.4587 21.4141 40.0003V34.6006C28.6333 34.0745 34.4036 28.3035 34.9296 21.0781H40.3337Z" fill="#0E0E10"/>
<path fill-rule="evenodd" clip-rule="evenodd" d="M20.8721 10C25.972 10.2682 30.0612 14.3579 30.3293 19.4585H27.6272C27.3643 15.8484 24.4766 12.9603 20.8721 12.6973V10Z" fill="#0E0E10"/>
<path fill-rule="evenodd" clip-rule="evenodd" d="M19.7945 30.0007C14.6945 29.7326 10.6053 25.6428 10.332 20.5371H13.0341C13.2971 24.1472 16.1848 27.0353 19.7945 27.2983V30.0007Z" fill="#0E0E10"/>
<path fill-rule="evenodd" clip-rule="evenodd" d="M10.3369 19.4636C10.6102 14.3631 14.6943 10.2733 19.7942 10V12.7024C16.1845 12.9655 13.2968 15.8535 13.0338 19.4636H10.3369Z" fill="#0E0E10"/>
<path fill-rule="evenodd" clip-rule="evenodd" d="M30.3342 20.541C30.0661 25.6416 25.9769 29.7313 20.877 30.0047V27.3022C24.4866 27.0392 27.3692 24.1511 27.6373 20.541H30.3342Z" fill="#0E0E10"/>
</svg>
