<svg width="100" height="100" viewBox="0 0 100 100" fill="none" xmlns="http://www.w3.org/2000/svg">
<path d="M50.6373 28.8064C50.6529 28.7958 50.6633 28.7853 50.6788 28.7695L58.4453 36.638C58.4297 36.6485 58.4193 36.6591 58.409 36.6748C53.8457 41.2929 53.8457 48.7879 58.409 53.4112C62.9671 58.0345 70.365 58.0292 74.9283 53.4112C79.4916 48.7879 79.4916 41.2981 74.9283 36.6748C74.9179 36.6643 74.9023 36.6538 74.8919 36.638L82.6584 28.7695C82.6688 28.7853 82.6843 28.7906 82.6947 28.8064C91.5462 37.7741 91.5462 52.3119 82.6947 61.2745C73.8484 70.2422 59.4992 70.2422 50.6477 61.2745C41.7858 52.3067 41.7858 37.7689 50.6373 28.8064Z" fill="#0E0E10"/>
<path d="M62.0847 49.6764C64.6129 52.2378 68.709 52.2378 71.2373 49.6764C73.7655 47.1149 73.7655 42.965 71.2373 40.4035C68.709 37.8421 64.6129 37.8421 62.0847 40.4035C59.5564 42.965 59.5564 47.1149 62.0847 49.6764Z" fill="#0E0E10"/>
<path d="M75.8935 31.1203L70.5203 36.5641C68.1271 35.2124 65.1939 35.2124 62.8058 36.5641L57.4326 31.1203C62.8785 26.9599 70.4425 26.9599 75.8935 31.1203Z" fill="#0E0E10"/>
</svg>
