<svg width="40" height="40" viewBox="0 0 40 40" fill="none" xmlns="http://www.w3.org/2000/svg">
<path d="M7.69963 7.70403C1.75675 18.326 11.7639 25.5965 11.7639 25.5965C11.1295 16.0804 19.9128 5.57287 32.7686 11.0724C32.7686 11.0724 30.055 -0.807929 18.7832 0.0436912C14.4488 0.365697 10.0244 3.54762 7.69963 7.70403Z" fill="#2C2931"/>
<path d="M38.5469 19.609C33.5044 8.49977 22.0321 12.868 22.0321 12.868C29.9477 17.7532 33.2793 31.2139 21.5859 39.014C21.5859 39.014 32.559 43.4798 38.3136 33.4086C40.5237 29.5318 40.5196 23.9603 38.5469 19.609Z" fill="#2C2931"/>
<path d="M3.58982 34.3251C-4.51819 25.3682 3.64303 15.9453 3.64303 15.9453C5.10009 25.364 15.9544 33.5412 27.2753 25.1818C27.2753 25.1818 27.2262 37.3884 16.0608 39.1975C11.7674 39.8966 6.7659 37.829 3.58982 34.3251Z" fill="#2C2931"/>
</svg>
