<svg width="41" height="40" viewBox="0 0 41 40" fill="none" xmlns="http://www.w3.org/2000/svg">
<path d="M7.13715 11.4792L8.60204 12.1751C9.09034 12.4047 9.57865 12.6414 10.0632 12.8818C11.036 13.3517 12.0012 13.836 12.9664 14.3238C13.9317 14.8081 14.8855 15.3067 15.847 15.7982L17.2778 16.5515C17.7548 16.8026 18.2317 17.0501 18.7048 17.3084C18.9395 17.4376 19.1742 17.5631 19.4089 17.6887V17.6671L19.443 17.6851C19.4468 17.4878 19.4468 17.2941 19.4506 17.0968C19.4695 16.1246 19.4808 15.1561 19.5111 14.1839C19.5338 13.2118 19.5679 12.2432 19.6095 11.2711C19.6436 10.299 19.7004 9.3304 19.7458 8.35826C19.8064 7.38612 19.8556 6.41757 19.9313 5.44542L20.041 3.98901L20.1622 2.53259C20.2417 1.68959 20.3212 0.843001 20.4196 0L2.93555 9.56716L4.18467 10.1196C5.17262 10.568 6.15678 11.02 7.13715 11.4792Z" fill="#0E0E10"/>
<path d="M35.4868 13.0358L34.1166 13.8895C33.6624 14.1765 33.2006 14.4563 32.7425 14.7361C31.8265 15.2993 30.8991 15.8482 29.9755 16.397C29.0519 16.9494 28.117 17.4804 27.1858 18.0256L25.7815 18.822C25.3121 19.0874 24.8465 19.3565 24.3734 19.6148C24.1311 19.7475 23.8926 19.8802 23.6504 20.0165L24.2901 20.3717L25.6528 21.1465L27.0155 21.925C27.9164 22.4523 28.8248 22.9688 29.7219 23.5069C30.6228 24.0378 31.5161 24.5795 32.4094 25.1248L33.7419 25.9498L35.0705 26.7821C35.9524 27.3417 36.8306 27.9085 37.705 28.4824L39.0109 29.3505L39.3326 29.5658V10.5391L38.2009 11.2888C37.3 11.8771 36.3953 12.4618 35.4868 13.0358Z" fill="#0E0E10"/>
<path d="M3.96823 28.4785C4.84263 27.9046 5.72081 27.3378 6.60277 26.7782L7.93139 25.9459L9.26378 25.1209C10.1533 24.5756 11.0504 24.0339 11.9475 23.503C12.8446 22.9649 13.7531 22.4484 14.654 21.921L16.0167 21.1426L17.3793 20.3678L18.019 20.0126C17.7768 19.8799 17.5383 19.7436 17.2961 19.6109C16.8229 19.3526 16.3573 19.0835 15.888 18.8181L14.4836 18.0217C13.5525 17.48 12.6175 16.9456 11.6939 16.3931C10.7665 15.8443 9.84294 15.2954 8.92691 14.7322C8.46511 14.4524 8.0071 14.1726 7.55287 13.8856L6.18261 13.0319C5.27416 12.4579 4.36568 11.8732 3.46479 11.2849L2.33301 10.5352V29.5619L2.65477 29.3466L3.96823 28.4785Z" fill="#0E0E10"/>
<path d="M19.9158 34.8838C19.8779 34.3888 19.8476 33.8937 19.8174 33.3951C19.7909 32.9001 19.753 32.405 19.7303 31.9064C19.6811 30.9163 19.6281 29.9227 19.5941 28.9326C19.5751 28.4375 19.5524 27.9425 19.5411 27.4439L19.4994 25.9552C19.4691 24.9651 19.4616 23.9714 19.4426 22.9814C19.4388 22.7589 19.4351 22.5365 19.4351 22.3105L18.784 22.6621L17.3948 23.3939L16.0056 24.1221C15.0707 24.5992 14.1471 25.0871 13.2046 25.5498C12.2696 26.0233 11.3271 26.4861 10.3846 26.9453L8.96509 27.6268L7.53804 28.3012C6.58416 28.746 5.62651 29.1837 4.66885 29.6142L3.22288 30.2491L2.86328 30.4034L20.3587 39.9777C20.2829 39.2674 20.2148 38.5571 20.1505 37.8469C20.0634 36.8676 19.9839 35.8775 19.9158 34.8838Z" fill="#0E0E10"/>
<path d="M37.0061 29.6259C36.0447 29.1954 35.087 28.7578 34.1369 28.313L32.7099 27.6386L31.2904 26.957C30.3441 26.4978 29.4053 26.0351 28.4704 25.5616C27.5316 25.0952 26.6043 24.6073 25.6693 24.1338L24.2764 23.4056L22.8872 22.6738L22.2361 22.3223C22.2361 22.5447 22.2323 22.7671 22.2285 22.9931C22.2096 23.9832 22.202 24.9768 22.1718 25.9669L22.1301 27.4556C22.1187 27.9506 22.0923 28.4457 22.0771 28.9443C22.0431 29.9344 21.99 30.9281 21.9408 31.9181C21.9181 32.4132 21.8841 32.9082 21.8538 33.4068C21.8235 33.9019 21.7932 34.3969 21.7554 34.8955C21.6872 35.8856 21.6077 36.8793 21.5207 37.8694C21.4563 38.5796 21.3844 39.2899 21.3125 40.0002L38.8079 30.4258L38.4483 30.2716L37.0061 29.6259Z" fill="#0E0E10"/>
<path d="M21.6383 3.99911L21.7481 5.45553C21.8238 6.42767 21.873 7.39622 21.9335 8.36836C21.979 9.34051 22.0357 10.3091 22.0698 11.2812C22.1115 12.2533 22.1417 13.2219 22.1682 14.194C22.1985 15.1662 22.2099 16.1347 22.2288 17.1069C22.2326 17.3042 22.2326 17.4979 22.2364 17.6952L22.2704 17.6772V17.6988C22.5051 17.5732 22.7398 17.4476 22.9745 17.3185C23.4476 17.0602 23.9246 16.8127 24.4015 16.5616L25.8323 15.8083C26.7938 15.3168 27.7477 14.8146 28.7129 14.3339C29.6781 13.8497 30.6434 13.3654 31.6162 12.8919C32.1007 12.6515 32.5852 12.4183 33.0773 12.1852L34.5422 11.4892C35.5226 11.0301 36.5067 10.5781 37.4947 10.1333L38.7438 9.58085L21.2598 0.0136719C21.3544 0.856673 21.4377 1.70326 21.5172 2.54626L21.6383 3.99911Z" fill="#0E0E10"/>
</svg>
