<svg width="41" height="40" viewBox="0 0 41 40" fill="none" xmlns="http://www.w3.org/2000/svg">
<path d="M4.43423 25.4072C0.188347 17.843 3.09342 7.93779 10.9241 3.24609C10.8775 3.27482 10.831 3.29875 10.7844 3.32747C1.11016 9.07241 -2.49792 21.2804 2.73029 30.592C7.45569 39.0083 17.7864 42.1776 26.8741 38.4673L23.3126 32.124C16.1104 34.6565 8.14937 32.0186 4.43423 25.4072Z" fill="#0E0E10"/>
<path d="M9.99764 23.5496C12.3859 27.8057 17.8935 29.1366 22.3209 26.5322C22.293 26.5466 22.2697 26.5609 22.2418 26.5801C16.7994 29.8116 10.0023 28.1839 7.06463 22.9464C4.4063 18.2116 5.80762 12.1411 10.1233 8.63672L12.1252 12.2034C8.89892 15.0998 7.90728 19.8298 9.99764 23.5496Z" fill="#0E0E10"/>
<path d="M36.2319 14.5906C40.4777 22.1548 37.5727 32.06 29.742 36.7565C29.7885 36.7278 29.8351 36.7038 29.8816 36.6751C39.5559 30.9302 43.164 18.7269 37.9358 9.41057C33.2104 0.989446 22.8797 -2.17505 13.792 1.53522L17.3535 7.87859C24.5557 5.34124 32.5167 7.97434 36.2319 14.5906Z" fill="#0E0E10"/>
<path d="M30.669 16.4485C28.2807 12.1973 22.7732 10.8664 18.3457 13.466C18.3736 13.4516 18.3969 13.4372 18.4202 13.4229C23.8672 10.1913 30.6597 11.8191 33.5974 17.0518C36.2557 21.7865 34.8544 27.8522 30.5386 31.3614L28.5368 27.7948C31.7677 24.8984 32.7594 20.1732 30.669 16.4485Z" fill="#0E0E10"/>
</svg>
