<svg width="41" height="40" viewBox="0 0 41 40" fill="none" xmlns="http://www.w3.org/2000/svg">
<path d="M24.4914 20.0007C24.4914 17.9353 25.05 16.0101 26.0142 14.3652H16.4308C15.9262 16.155 15.6514 18.0428 15.6514 20.0007C15.6514 21.9587 15.9262 23.8465 16.4308 25.6363H26.0142C25.05 23.9961 24.4914 22.0662 24.4914 20.0007Z" fill="#0E0E10"/>
<path d="M20.833 9.1729C24.6087 9.1729 27.9158 11.2524 29.7496 14.3645H39.333C36.9856 6.06544 29.5964 0 20.833 0C12.0696 0 4.68043 6.06544 2.33301 14.3645H11.9164C13.7502 11.2524 17.0573 9.1729 20.833 9.1729ZM20.833 30.8271C17.0573 30.8271 13.7502 28.7477 11.9164 25.6355H2.33301C4.68043 33.9346 12.0741 40 20.833 40C29.5964 40 36.9901 33.9346 39.333 25.6355H29.7496C27.9158 28.7477 24.6087 30.8271 20.833 30.8271Z" fill="#0E0E10"/>
</svg>
