<svg width="40" height="40" viewBox="0 0 40 40" fill="none" xmlns="http://www.w3.org/2000/svg">
<path d="M0 19.987C0 25.5078 2.29503 30.8302 6.34063 34.6108C7.56703 32.5297 7.96906 29.9143 7.24645 27.2684C6.24905 23.6099 3.3637 20.8877 0 19.987ZM1.03301 13.6928C0.534308 15.1888 0.213716 16.7102 0.0814072 18.2265C4.74275 18.6895 8.69167 24.0577 9.14966 30.8607C9.28197 32.8451 9.09876 34.7431 8.66622 36.4731C9.71451 37.1956 10.8493 37.8215 12.0604 38.3456C12.6965 35.1756 12.6813 31.6647 11.862 28.1232C10.259 21.2031 6.02513 15.891 1.03301 13.6928ZM22.6045 10.3752C27.6627 11.5099 32.6141 10.762 36.4562 8.64014C35.7386 7.59704 34.9193 6.62518 34.0084 5.72964C30.5328 8.5282 24.6909 9.09809 19.1034 6.77274C16.1875 5.56173 13.7805 3.74012 12.0808 1.64884C11.5465 1.8829 11.0223 2.13222 10.5084 2.40699C13.0324 6.18758 17.3274 9.18459 22.6045 10.3752ZM39.7792 22.9688C39.942 21.8748 40.0132 20.7757 39.998 19.6868C35.8201 21.0047 31.8661 24.0729 29.1995 28.515C27.1742 31.8936 26.2073 35.5521 26.2124 39.0071C26.6806 38.8544 27.1437 38.6865 27.6017 38.4982C28.0189 35.3486 29.683 31.7562 32.4513 28.5506C34.6853 25.9709 37.2653 24.0678 39.7792 22.9688ZM39.3008 14.7817C38.9853 13.6165 38.568 12.4869 38.0541 11.4031C32.4106 13.9828 23.785 13.7284 15.2358 10.1717C11.9739 8.81315 9.04789 7.11366 6.54929 5.20046C4.92596 6.67606 3.52652 8.43152 2.43243 10.4414C8.89012 13.1636 14.1672 23.1519 14.9916 35.3791C15.0832 36.7377 15.1137 38.0759 15.0934 39.3887C17.8464 40.0909 20.6453 40.1723 23.3271 39.7143C23.7291 34.0867 26.6195 27.4414 31.6931 21.5746C34.0593 18.8523 36.6496 16.5677 39.3008 14.7817ZM23.5408 6.55903C26.7365 7.14927 29.9578 6.24356 32.4462 4.35072C31.0264 3.2262 29.4336 2.26961 27.678 1.53689C23.8665 -0.0455656 19.8463 -0.366128 16.0806 0.392027C17.2358 3.4908 19.9379 5.89247 23.5408 6.55903ZM38.6851 27.1208C35.7488 27.5889 32.838 29.5428 30.9857 32.6365C30.0086 34.2699 29.454 36.0151 29.2861 37.7146C33.2859 35.6233 36.6037 32.1735 38.4662 27.6805C38.5426 27.4923 38.6138 27.304 38.6851 27.1208Z" fill="#0E0E10"/>
</svg>
